# xmcd CD database file
#
# Track frame offsets:
#	150
#	14769
#	32756
#	48478
#	68414
#	87684
#	99974
#	115873
#	130272
#	146731
#	161128
#	177502
#	196515
#
# Disc length: 2779 seconds
#
# Revision: 0
# Processed by: cddbd v1.5.1PL0 Copyright (c) Steve Scherf et al.
# Submitted via: CDex 1.51
#
DISCID=b30ad90d
DTITLE=Isla Grant - When The Day Is Done
DYEAR=2005
DGENRE=Country
TTITLE0=When The Day Is Done
TTITLE1=Meet Her Someday
TTITLE2=Australia
TTITLE3=Lough Rea
TTITLE4=A Daisy For Mama
TTITLE5=Love's A Blessing
TTITLE6=Let Me See
TTITLE7=Falling In Love With You
TTITLE8=My Scotland
TTITLE9=An Old Country Church
TTITLE10=Parcel Of Dreams
TTITLE11=Out Of The Blue
TTITLE12=I Heard A Bluebird Sing
EXTD=YEAR: 2005
EXTT0=
EXTT1=
EXTT2=
EXTT3=
EXTT4=
EXTT5=
EXTT6=
EXTT7=
EXTT8=
EXTT9=
EXTT10=
EXTT11=
EXTT12=
PLAYORDER=
